<svg width="96" height="96" xmlns="http://www.w3.org/2000/svg" xmlns:xlink="http://www.w3.org/1999/xlink" xml:space="preserve" overflow="hidden"><defs><clipPath id="clip0"><rect x="285" y="279" width="96" height="96"/></clipPath></defs><g clip-path="url(#clip0)" transform="translate(-285 -279)"><path d="M333 289C312 289 295 306 295 327 295 348 312 365 333 365 354 365 371 348 371 327 371 306 354 289 333 289ZM333 361C314.3 361 299 345.7 299 327 299 326.5 299 326.1 299 325.6L300.4 323.8C300.8 323.3 301.4 323 302 323L305.4 323C305.8 323 306.1 323.2 306.3 323.6L309.9 330.8C310 331 310.1 331.1 310.2 331.2L311.4 332C312.1 332.4 313 332 313 331.2L313 327.9C313 327.4 313.2 326.9 313.6 326.5L316.2 323.9C316.6 323.5 317.3 323.5 317.7 324L320.7 327.8C320.9 328 321.2 328.2 321.5 328.2L322.2 328.2C322.7 328.2 323.2 328.4 323.6 328.8L324.4 329.6C324.8 330 325.3 330.2 325.8 330.2L326 330.2C326.6 330.2 327 329.8 327 329.2L327 326.8C327 326.4 326.8 326.1 326.4 325.9L325.5 325.5C325.2 325.3 324.9 325 324.9 324.6L324.9 323C324.9 322.4 325.3 322 325.9 322L328.4 322C328.7 322 329 321.8 329.2 321.6L330.6 319.5C330.8 319.2 330.9 318.8 330.9 318.4L330.9 316.3C330.9 316.1 330.9 316 330.8 315.8L330.1 312.8C330 312.3 330.2 311.9 330.6 311.7L331.1 311.5C331.6 311.3 332.1 311.4 332.4 311.8 332.4 311.8 333.3 313.7 333.9 314.1 334.1 314.2 334.7 314.3 334.9 314.1 335.5 313.5 335.3 311.5 335.1 310.2 335 309.5 335.3 308.8 335.9 308.3L338.5 306.3C338.8 306.1 338.9 305.8 338.9 305.5L338.9 305C338.9 304.4 339.3 304 339.9 304 340.5 304 340.9 303.6 340.9 303L340.9 302.8C340.9 302.3 340.6 301.9 340.1 301.8L338.3 301.4C337.6 301.2 337.3 300.4 337.7 299.8L338.9 298.2C339.5 297.4 340.4 297 341.3 297L344.4 297C345.2 297 345.9 296.5 346.2 295.8 358.5 301 367 313 367 327 367 345.7 351.7 361 333 361Z" fill="#FFFFFF"/><path d="M350.1 347.4C350 347.2 349.9 346.9 349.7 346.7L345.8 340.8C345.3 340 344 340.3 344 341.3L344 342C344 342.6 343.6 343 343 343L342.6 343C342.2 343 341.9 342.8 341.7 342.4L340.9 340.7C340.5 340 339.5 340 339.1 340.7L338.3 341.6C338.1 341.8 337.8 341.9 337.6 341.9L336.9 341.9C336.4 341.9 335.9 342.1 335.5 342.5L331.5 345.7C330.7 346.4 330.5 347.6 331.1 348.4L333.7 352.7C334.4 353.8 335.9 354 336.8 353.1L338.7 351.2C339.4 350.5 340.6 350.4 341.4 351.1L344.7 353.8C344.9 353.9 345.1 354 345.3 354L348 354C348.6 354 349 353.6 349 353L349 351.6C349 351.2 349.2 350.9 349.6 350.7L350.3 350.4C350.7 350.2 351 349.7 350.8 349.2L350.1 347.4Z" fill="#FFFFFF"/><path d="M339 334 341.5 337.3C341.8 337.7 342.3 337.8 342.7 337.6L344 337 345.7 337.6C346.3 337.8 347 337.3 347 336.7L347 336.7C347 336.3 346.8 336 346.5 335.8L342.2 333.2C342.1 333 341.9 333 341.7 333L339 333 339 334Z" fill="#FFFFFF"/><path d="M331.3 334.8 331.9 332.6C332 332.3 331.9 331.9 331.6 331.7 331.3 331.4 330.7 331.3 330.3 331.6L328.3 333.1C327.7 333.5 327.8 334.5 328.5 334.8L329.9 335.5C330.5 335.7 331.1 335.4 331.3 334.8Z" fill="#FFFFFF"/><path d="M321.7 332.5C321.3 332.2 320.8 332.3 320.4 332.6L320 333 325.9 337.9C326 338 326.1 338 326.2 338.1L328.4 338.8C328.8 338.9 329.2 338.8 329.4 338.6L330 338C325.8 336.8 321.7 332.5 321.7 332.5Z" fill="#FFFFFF"/><path d="M336 317C338.7 315.2 341.8 313.1 341 310 340.9 309.8 340.1 309.8 340 310 339.6 311.8 339.2 313.3 335 316 334.8 316.2 335.6 317.2 336 317Z" fill="#FFFFFF"/></g></svg>