<svg width="96" height="96" xmlns="http://www.w3.org/2000/svg" xmlns:xlink="http://www.w3.org/1999/xlink" xml:space="preserve" overflow="hidden"><defs><clipPath id="clip0"><rect x="881" y="264" width="96" height="96"/></clipPath></defs><g clip-path="url(#clip0)" transform="translate(-881 -264)"><path d="M931 294 927 294C924.8 294 923 292.2 923 290L923 282C923 279.8 924.8 278 927 278L931 278C933.2 278 935 279.8 935 282L935 290C935 292.2 933.2 294 931 294Z" fill="#FFFFFF"/><path d="M961 314 937 314 937 310 961 310 961 314ZM961 326 937 326 937 322 961 322 961 326ZM961 338 937 338 937 334 961 334 961 338ZM929 338 897 338 897 330C897 328.8 897.6 327.6 898.6 326.8 900.8 325.2 903.6 323.8 906.4 323 908.6 322.4 910.8 322 913 322 915.4 322 917.6 322.4 919.6 323 922.4 323.8 925.2 325 927.4 326.8 928.4 327.6 929 328.8 929 330L929 338ZM913 304C917.4 304 921 307.6 921 312 921 316.4 917.4 320 913 320 908.6 320 905 316.4 905 312 905 307.6 908.6 304 913 304ZM965 290 939 290C939 294.4 935.4 298 931 298L927 298C922.6 298 919 294.4 919 290L893 290C890.8 290 889 291.8 889 294L889 342C889 344.2 890.8 346 893 346L965 346C967.2 346 969 344.2 969 342L969 294C969 291.8 967.2 290 965 290Z" fill="#FFFFFF"/></g></svg>