<svg width="96" height="96" xmlns="http://www.w3.org/2000/svg" xmlns:xlink="http://www.w3.org/1999/xlink" xml:space="preserve" overflow="hidden"><defs><clipPath id="clip0"><rect x="677" y="280" width="96" height="96"/></clipPath></defs><g clip-path="url(#clip0)" transform="translate(-677 -280)"><path d="M751.2 354.2C747.7 357.7 742 357.7 738.5 354.2L730 345.7C727.3 343 726.6 338.9 728.3 335.5L735.7 342.9C736.9 344 738.7 344 739.9 342.8 741 341.7 741.1 339.8 740 338.6L732.6 331.2C736 329.6 740.1 330.3 742.8 333L751.3 341.5C754.7 345 754.7 350.6 751.2 354.2ZM707.3 323 698.8 314.5C695.3 311 695.3 305.3 698.8 301.8 702.3 298.3 708 298.3 711.5 301.8L720 310.3C722.7 313 723.4 317.1 721.8 320.5L715.8 314.5C714.6 313.4 712.8 313.4 711.6 314.6 710.5 315.7 710.4 317.6 711.5 318.8L717.5 324.8C714.1 326.4 710 325.7 707.3 323ZM755.4 337.2 746.9 328.7C741.9 323.6 733.9 322.8 728 326.8L726.2 325C730.1 319.1 729.3 311.2 724.3 306.1L715.8 297.6C709.9 292.2 700.7 292.4 695 298 689.3 303.7 689.1 312.8 694.6 318.8L703.1 327.3C708.1 332.4 716.1 333.2 722 329.2L723.8 331C719.9 336.9 720.7 344.8 725.7 349.9L734.2 358.4C740.1 363.9 749.3 363.7 755 358 760.7 352.3 760.9 343.1 755.4 337.2L755.4 337.2Z" fill="#FFFFFF"/></g></svg>