<svg width="96" height="96" xmlns="http://www.w3.org/2000/svg" xmlns:xlink="http://www.w3.org/1999/xlink" xml:space="preserve" overflow="hidden"><defs><clipPath id="clip0"><rect x="481" y="279" width="96" height="96"/></clipPath></defs><g clip-path="url(#clip0)" transform="translate(-481 -279)"><path d="M520.346 312 533.077 312 520.377 290C508.62 292.749 498.865 300.912 494.086 312Z" fill="#FFFFFF"/><path d="M541.738 319 541.715 319.013 544.083 323.113 556.8 301.1C549.623 293.375 539.551 288.99 529.006 289 527.524 289.003 526.043 289.092 524.571 289.266Z" fill="#FFFFFF"/><path d="M540.108 338 565.383 338C568.857 326.493 566.686 314.02 559.528 304.364Z" fill="#FFFFFF"/><path d="M537.666 342 524.935 342 537.635 364C549.391 361.251 559.147 353.088 563.925 342Z" fill="#FFFFFF"/><path d="M516.273 335 516.297 334.987 513.913 330.859 501.2 352.885C508.377 360.619 518.455 365.01 529.006 365 530.488 364.997 531.969 364.908 533.441 364.734Z" fill="#FFFFFF"/><path d="M517.873 316 492.629 316C489.158 327.497 491.322 339.959 498.467 349.612Z" fill="#FFFFFF"/></g></svg>